<svg xmlns="http://www.w3.org/2000/svg" xmlns:xlink="http://www.w3.org/1999/xlink" width="500" zoomAndPan="magnify" viewBox="0 0 375 374.999991" height="500" preserveAspectRatio="xMidYMid meet" version="1.0"><defs><g/><clipPath id="3d1c786f16"><path d="M 162.640625 146.664062 L 248 146.664062 L 248 234.414062 L 162.640625 234.414062 Z M 162.640625 146.664062 " clip-rule="nonzero"/></clipPath></defs><rect x="-37.5" width="450" fill="#ffffff" y="-37.499999" height="449.999989" fill-opacity="1"/><rect x="-37.5" width="450" fill="#e4e0d7" y="-37.499999" height="449.999989" fill-opacity="1"/><g fill="#284a3a" fill-opacity="1"><g transform="translate(36.834985, 219.751289)"><g><path d="M 66.921875 -51.09375 C 72.378906 -45.101562 75.109375 -37.78125 75.109375 -29.125 C 75.109375 -20.476562 72.378906 -13.175781 66.921875 -7.21875 C 61.460938 -1.269531 54.519531 1.703125 46.09375 1.703125 C 38.351562 1.703125 31.976562 -1.0625 26.96875 -6.59375 L 26.75 -6.59375 L 26.75 0 L 6.828125 0 L 6.828125 -97.875 L 26.96875 -97.875 L 26.96875 -52.8125 C 31.976562 -57.664062 38.351562 -60.09375 46.09375 -60.09375 C 54.519531 -60.09375 61.460938 -57.09375 66.921875 -51.09375 Z M 49.953125 -19.296875 C 52.460938 -21.835938 53.71875 -25.117188 53.71875 -29.140625 C 53.71875 -33.160156 52.40625 -36.457031 49.78125 -39.03125 C 47.164062 -41.613281 43.925781 -42.90625 40.0625 -42.90625 C 36.269531 -42.90625 33.0625 -41.613281 30.4375 -39.03125 C 27.820312 -36.457031 26.515625 -33.160156 26.515625 -29.140625 C 26.515625 -25.191406 27.785156 -21.925781 30.328125 -19.34375 C 32.867188 -16.769531 36.113281 -15.484375 40.0625 -15.484375 C 44.15625 -15.484375 47.453125 -16.753906 49.953125 -19.296875 Z M 49.953125 -19.296875 "/></g></g></g><g fill="#284a3a" fill-opacity="1"><g transform="translate(105.683999, 219.751289)"><g><path d="M 65.890625 -26.40625 L 23.5625 -26.40625 C 23.5625 -22.3125 24.890625 -19.273438 27.546875 -17.296875 C 30.203125 -15.328125 33.082031 -14.34375 36.1875 -14.34375 C 39.457031 -14.34375 42.039062 -14.773438 43.9375 -15.640625 C 45.832031 -16.515625 47.992188 -18.242188 50.421875 -20.828125 L 64.984375 -13.546875 C 58.910156 -3.378906 48.820312 1.703125 34.71875 1.703125 C 25.914062 1.703125 18.363281 -1.3125 12.0625 -7.34375 C 5.769531 -13.375 2.625 -20.640625 2.625 -29.140625 C 2.625 -37.640625 5.769531 -44.921875 12.0625 -50.984375 C 18.363281 -57.054688 25.914062 -60.09375 34.71875 -60.09375 C 43.96875 -60.09375 51.492188 -57.414062 57.296875 -52.0625 C 63.109375 -46.71875 66.015625 -39.078125 66.015625 -29.140625 C 66.015625 -27.773438 65.972656 -26.863281 65.890625 -26.40625 Z M 24.125 -37.5625 L 46.328125 -37.5625 C 45.867188 -40.59375 44.671875 -42.921875 42.734375 -44.546875 C 40.796875 -46.179688 38.3125 -47 35.28125 -47 C 31.945312 -47 29.289062 -46.125 27.3125 -44.375 C 25.34375 -42.632812 24.28125 -40.363281 24.125 -37.5625 Z M 24.125 -37.5625 "/></g></g></g><g fill="#284a3a" fill-opacity="1"><g transform="translate(165.428952, 219.751289)"><g><path d="M 10.8125 -7.21875 C 5.351562 -13.175781 2.625 -20.476562 2.625 -29.125 C 2.625 -37.78125 5.351562 -45.101562 10.8125 -51.09375 C 16.269531 -57.09375 23.210938 -60.09375 31.640625 -60.09375 C 39.378906 -60.09375 45.753906 -57.664062 50.765625 -52.8125 L 50.765625 -58.390625 L 70.90625 -58.390625 L 70.90625 0 L 50.984375 0 L 50.984375 -6.59375 L 50.765625 -6.59375 C 45.753906 -1.0625 39.378906 1.703125 31.640625 1.703125 C 23.210938 1.703125 16.269531 -1.269531 10.8125 -7.21875 Z M 27.9375 -39.03125 C 25.320312 -36.457031 24.015625 -33.160156 24.015625 -29.140625 C 24.015625 -25.117188 25.265625 -21.835938 27.765625 -19.296875 C 30.273438 -16.753906 33.578125 -15.484375 37.671875 -15.484375 C 41.617188 -15.484375 44.863281 -16.769531 47.40625 -19.34375 C 49.945312 -21.925781 51.21875 -25.191406 51.21875 -29.140625 C 51.21875 -33.160156 49.90625 -36.457031 47.28125 -39.03125 C 44.664062 -41.613281 41.460938 -42.90625 37.671875 -42.90625 C 33.804688 -42.90625 30.5625 -41.613281 27.9375 -39.03125 Z M 27.9375 -39.03125 "/></g></g></g><g fill="#284a3a" fill-opacity="1"><g transform="translate(234.277966, 219.751289)"><g><path d="M 6.828125 0 L 6.828125 -58.390625 L 26.96875 -58.390625 L 26.96875 -52.234375 L 27.203125 -52.234375 C 32.429688 -57.472656 38.007812 -60.09375 43.9375 -60.09375 C 48.1875 -60.09375 52.164062 -59.21875 55.875 -57.46875 C 59.59375 -55.726562 62.398438 -53.035156 64.296875 -49.390625 C 70.222656 -56.523438 76.675781 -60.09375 83.65625 -60.09375 C 89.875 -60.09375 95.222656 -58.347656 99.703125 -54.859375 C 104.179688 -51.367188 106.421875 -45.90625 106.421875 -38.46875 L 106.421875 0 L 86.265625 0 L 86.265625 -33 C 86.265625 -36.113281 85.410156 -38.710938 83.703125 -40.796875 C 81.992188 -42.890625 79.4375 -43.9375 76.03125 -43.9375 C 73.070312 -43.9375 70.8125 -43.039062 69.25 -41.25 C 67.695312 -39.46875 66.84375 -37.328125 66.6875 -34.828125 L 66.6875 0 L 46.546875 0 L 46.546875 -33 C 46.546875 -36.113281 45.691406 -38.710938 43.984375 -40.796875 C 42.273438 -42.890625 39.71875 -43.9375 36.3125 -43.9375 C 33.195312 -43.9375 30.859375 -42.96875 29.296875 -41.03125 C 27.742188 -39.09375 26.96875 -36.796875 26.96875 -34.140625 L 26.96875 0 Z M 6.828125 0 "/></g></g></g><g clip-path="url(#3d1c786f16)"><path fill="#e4e1da" d="M 247.996094 189.8125 L 235.410156 189.8125 C 213.863281 185.148438 209.070312 180.339844 204.40625 158.761719 L 204.40625 146.664062 L 202.816406 146.664062 L 202.816406 158.886719 C 198.160156 180.359375 193.34375 185.160156 171.839844 189.8125 L 162.65625 189.8125 L 162.65625 191.40625 L 171.839844 191.40625 C 193.34375 196.058594 198.160156 200.859375 202.816406 222.332031 L 202.816406 234.328125 L 204.40625 234.328125 L 204.40625 222.457031 C 209.070312 200.878906 213.863281 196.070312 235.410156 191.40625 L 247.996094 191.40625 Z M 247.996094 189.8125 " fill-opacity="1" fill-rule="nonzero"/></g></svg>